<?xml version="1.0" encoding="utf-8"?>
<!-- Generator: Adobe Illustrator 16.0.0, SVG Export Plug-In . SVG Version: 6.00 Build 0)  -->
<!DOCTYPE svg PUBLIC "-//W3C//DTD SVG 1.1//EN" "http://www.w3.org/Graphics/SVG/1.1/DTD/svg11.dtd">
<svg version="1.1" id="Capa_1" xmlns="http://www.w3.org/2000/svg" xmlns:xlink="http://www.w3.org/1999/xlink" x="0px" y="0px"
	 width="416.139px" height="479.792px" viewBox="8.056 238.794 416.139 479.792"
	 enable-background="new 8.056 238.794 416.139 479.792" xml:space="preserve">
<g id="XMLID_817_">
	<path id="XMLID_819_" fill="#29A18C" d="M216.125,238.794c-114.729,0-208.069,93.34-208.069,208.069v63.653
		c0,114.729,93.34,208.069,208.069,208.069s208.069-93.34,208.069-208.069v-63.653C424.195,332.134,330.855,238.794,216.125,238.794
		z M358.148,510.516c0,78.311-63.712,142.021-142.023,142.021l0,0c-78.311,0-142.021-63.709-142.021-142.021v-63.653
		c0-1.475,0.066-2.934,0.112-4.398h152.363c12.965,0,24.708-7.158,30.647-18.684l6.834-13.263c3.142-6.098,9.127-9.736,16.01-9.736
		c5.578,0,10.744,2.544,14.172,6.979l16.478,21.313c6.482,8.385,16.68,13.39,27.277,13.39h20.039
		c0.045,1.465,0.111,2.923,0.111,4.398V510.516L358.148,510.516z"/>
	<path id="XMLID_822_" fill="#29A18C" d="M158.334,482.864c-13.657,0-24.768,11.11-24.768,24.768s11.111,24.768,24.768,24.768
		c13.657,0,24.768-11.11,24.768-24.768S171.991,482.864,158.334,482.864z"/>
	<path id="XMLID_823_" fill="#29A18C" d="M273.917,482.864c-13.657,0-24.768,11.11-24.768,24.768s11.111,24.768,24.768,24.768
		c13.657,0,24.768-11.11,24.768-24.768S287.574,482.864,273.917,482.864z"/>
</g>
</svg>
