<?xml version="1.0" encoding="utf-8"?>
<!-- Generator: Adobe Illustrator 16.0.0, SVG Export Plug-In . SVG Version: 6.00 Build 0)  -->
<!DOCTYPE svg PUBLIC "-//W3C//DTD SVG 1.1//EN" "http://www.w3.org/Graphics/SVG/1.1/DTD/svg11.dtd">
<svg version="1.1" id="Capa_1" xmlns="http://www.w3.org/2000/svg" xmlns:xlink="http://www.w3.org/1999/xlink" x="0px" y="0px"
	 width="348px" height="83px" viewBox="0 0 348 83" enable-background="new 0 0 348 83" xml:space="preserve">
<g>
	<path fill="#1A5392" d="M31.854,26.813c0.121,1.302,0.219,2.588,0.295,3.86s0.145,2.528,0.205,3.769
		c0.121,1.12,0.182,2.172,0.182,3.156s-0.031,2.157-0.092,3.519c-0.121,0.878-0.15,1.733-0.09,2.566s0.061,1.688,0,2.565
		c0,0.757,0,1.438,0,2.043c0,0.606-0.076,1.469-0.227,2.588c-0.063,0.303-0.092,0.613-0.092,0.931c0,0.318,0,0.629,0,0.931
		c0.061,1.12,0.076,2.255,0.045,3.406c-0.029,1.151,0.031,2.316,0.182,3.497c0.061,1.665,0.061,3.33,0,4.995
		c-0.061,1.181-0.074,2.361-0.045,3.542s-0.029,2.361-0.182,3.542c-0.121,0.606-0.197,1.219-0.227,1.839
		c-0.031,0.621-0.107,1.249-0.227,1.885c-0.182,1.12-0.803,1.771-1.863,1.953c-1.24,0.182-2.496,0.333-3.768,0.453
		c-1.271,0.121-2.559,0.121-3.861,0c-0.242,0-0.393-0.029-0.453-0.09c-0.818-0.182-1.197-0.711-1.135-1.59
		c0.119-1.544,0.188-3.012,0.203-4.404s0.084-2.801,0.205-4.224c0-1.726,0-3.337,0-4.837c0-1.498,0.061-2.958,0.182-4.381
		c0.061-0.242,0.074-0.477,0.045-0.704c-0.029-0.227-0.045-0.431-0.045-0.613c-0.121-1.544-0.182-3.072-0.182-4.586
		c0-1.514,0.029-3.058,0.09-4.632c0.061-1.06,0.121-2.111,0.182-3.156c0.061-1.044,0.092-2.096,0.092-3.156
		c0.061-2.119,0.074-4.23,0.045-6.334s-0.105-4.201-0.227-6.29c-0.121-1.998-0.166-3.973-0.137-5.926
		c0.029-1.952,0.105-3.912,0.227-5.88c0.061-1.12,0.076-2.24,0.047-3.36c-0.031-1.12-0.016-2.24,0.045-3.36c0-0.302,0-0.583,0-0.84
		c0-0.257,0.029-0.537,0.09-0.84c0.121-0.696,0.455-1.06,1-1.09c2.725-0.484,5.373-0.454,7.947,0.091
		c0.605,0.121,0.938,0.545,0.998,1.271c0.182,2.059,0.303,4.109,0.363,6.153c0.061,2.043,0.061,4.094,0,6.153
		c0,0.938,0,1.87,0,2.792C31.673,24.944,31.733,25.875,31.854,26.813z M49.747,67.455c0.482,0.121,0.801,0.258,0.953,0.408
		c0.15,0.152,0.227,0.471,0.227,0.954c0,0.243-0.029,0.674-0.09,1.294c-0.063,0.621-0.107,1.295-0.137,2.021
		c-0.031,0.727-0.061,1.4-0.092,2.02c-0.029,0.621-0.045,1.084-0.045,1.386c0,0.182-0.061,0.454-0.182,0.817
		c-0.182,0.303-0.4,0.568-0.658,0.795s-0.629,0.34-1.113,0.34c-0.877,0.062-1.703,0.121-2.475,0.182
		c-0.771,0.062-1.596,0.062-2.475,0c-1.061,0-2.082,0.031-3.064,0.092c-0.984,0.061-2.006,0.061-3.066,0
		c-0.998,0-1.861-0.121-2.588-0.363c-0.545-0.121-0.916-0.311-1.113-0.568c-0.195-0.257-0.295-0.658-0.295-1.203
		c-0.121-2.24,0.107-4.314,0.682-6.221c0-0.182,0.029-0.355,0.092-0.523c0.061-0.166,0.119-0.34,0.182-0.521
		c0.242-0.484,0.469-0.771,0.68-0.863c0.213-0.09,0.666-0.182,1.363-0.271c1.422,0,2.83,0,4.223,0s2.801,0.045,4.223,0.136
		c0.303,0.062,0.645,0.075,1.021,0.046c0.379-0.03,0.721-0.092,1.023-0.182c0.482-0.061,0.938-0.068,1.361-0.023
		S49.263,67.334,49.747,67.455z"/>
	<path fill="#D66CB2" d="M66.729,6.696c0.818,0.484,1.438,1.333,1.861,2.543c0.424,1.211,0.516,2.468,0.273,3.769
		c-0.121,0.999-0.379,1.779-0.771,2.339c-0.395,0.56-1.061,1.097-1.998,1.612c-0.303,0.182-0.795,0.318-1.477,0.409
		s-1.219,0.167-1.611,0.227c-1.242,0-2.43-0.431-3.566-1.294c-1.135-0.862-1.809-1.914-2.02-3.156
		c-0.303-2.3,0.379-4.132,2.043-5.495c1.998-1.665,4.238-2.073,6.721-1.226C66.366,6.424,66.548,6.515,66.729,6.696z M68.138,72.541
		c0.061,0.363,0.121,0.734,0.182,1.113c0.061,0.378,0.121,0.748,0.182,1.111c0.182,0.545,0.15,1.166-0.092,1.862
		c-0.303,0.757-0.771,1.165-1.406,1.226c-2.725,0.363-5.359,0.334-7.902-0.09c-0.697-0.061-1.09-0.5-1.18-1.317
		c-0.121-0.696-0.221-1.476-0.297-2.339c-0.074-0.863-0.082-1.718-0.021-2.565c0.121-2.118,0.203-4.23,0.25-6.335
		c0.045-2.104,0.129-4.215,0.25-6.334c0-0.999,0.014-1.96,0.045-2.884c0.029-0.923,0.074-1.854,0.137-2.792
		c0.061-1.362,0.074-2.694,0.045-3.996c-0.031-1.301-0.045-2.634-0.045-3.996c0-0.696-0.016-1.862-0.047-3.497
		c-0.029-1.635-0.045-3.383-0.045-5.245c0-1.861,0-3.61,0-5.245s0-2.831,0-3.587c0-0.696-0.016-1.37-0.045-2.021
		c-0.031-0.651-0.016-1.31,0.045-1.976c0-0.363,0.016-0.719,0.045-1.067c0.031-0.348,0.076-0.704,0.137-1.067
		c0.061-0.484,0.424-0.863,1.09-1.135c0.182-0.061,0.371-0.091,0.568-0.091c0.195,0,0.385-0.03,0.566-0.091
		c1-0.061,1.977-0.075,2.93-0.045c0.953,0.03,1.93,0.106,2.93,0.227c0.695,0.121,1.15,0.341,1.361,0.658
		c0.211,0.318,0.318,0.72,0.318,1.204c0,0.757,0,2.392,0,4.904c0,2.513,0.016,5.252,0.045,8.219c0.029,2.967,0.061,5.851,0.092,8.65
		c0.029,2.801,0.045,4.852,0.045,6.153c0,0.606,0,1.362,0,2.271s-0.031,1.779-0.092,2.611s-0.105,1.566-0.135,2.202l-0.047,0.908
		c-0.061,1.302-0.09,2.543-0.09,3.724c0,1.181,0,2.324,0,3.429c0,1.104,0.016,2.247,0.045,3.428S68.077,71.179,68.138,72.541z"/>
	<path fill="#29A18C" d="M87.71,39.982c0,0.303,0.014,1.098,0.045,2.384c0.029,1.287,0.068,2.702,0.113,4.246
		s0.084,3.073,0.113,4.586c0.029,1.514,0.076,2.679,0.137,3.497L88.39,64.73c0,0.697-0.029,1.385-0.09,2.066
		s-0.121,1.355-0.182,2.021c0,1.12,0,2.241,0,3.36c0,1.12-0.061,2.24-0.182,3.36c0,0.425-0.045,0.727-0.137,0.908
		c-0.121,0.696-0.453,1.105-0.998,1.226c-0.303,0.121-0.584,0.213-0.842,0.273c-0.256,0.061-0.537,0.09-0.84,0.09h-4.904
		c-0.242,0-0.619-0.061-1.135-0.182c-0.756-0.182-1.135-0.619-1.135-1.316c-0.121-0.484-0.121-0.908,0-1.271
		c0.121-1.06,0.182-2.089,0.182-3.088s0-2.027,0-3.088c0-0.605-0.016-1.453-0.045-2.543c-0.031-1.09-0.047-2.188-0.047-3.293
		c0-1.104,0-2.141,0-3.11c0-0.969,0-1.604,0-1.907c0-0.363,0-1.074,0-2.134c0-1.06-0.016-2.195-0.045-3.406
		c-0.029-1.21-0.061-2.376-0.09-3.497c-0.031-1.12-0.016-1.953,0.045-2.498c0.182-2.725,0.211-5.434,0.09-8.128
		c-0.121-2.694-0.15-5.449-0.09-8.265c0-0.938,0-2.119,0-3.542c0-1.423-0.031-2.845-0.092-4.269
		c-0.061-1.423-0.105-2.671-0.135-3.747c-0.031-1.074-0.047-1.748-0.047-2.021c0.061-0.484,0.092-1.006,0.092-1.566s0-1.083,0-1.567
		c-0.061-0.756-0.107-1.506-0.137-2.248s-0.016-1.491,0.045-2.248c0-0.817,0.129-1.347,0.387-1.589
		c0.258-0.242,0.75-0.393,1.477-0.454c1.059-0.242,2.193-0.363,3.404-0.363s2.377,0.061,3.498,0.182
		c0.605,0.182,0.969,0.711,1.09,1.589c0.119,0.878,0.182,1.499,0.182,1.862c0,0.484,0,1.09,0,1.816s0.029,1.333,0.09,1.816
		c0,0.424-0.029,1.256-0.09,2.498c-0.063,1.242-0.121,2.642-0.182,4.2c-0.063,1.56-0.092,3.096-0.092,4.609c0,1.514,0,2.77,0,3.769
		c0,0.697,0.016,1.597,0.045,2.702c0.031,1.105,0.061,2.218,0.092,3.338c0.029,1.12,0.061,2.157,0.09,3.11
		C87.694,39.142,87.71,39.74,87.71,39.982z M91.933,32.943c-0.818,0-1.363-0.128-1.635-0.386c-0.273-0.257-0.484-0.719-0.637-1.385
		c-0.061-0.484-0.09-0.961-0.09-1.431c0-0.469,0-0.96,0-1.476c0.121-2.3,0.182-4.579,0.182-6.834s-0.031-4.534-0.092-6.834
		c0-0.817,0.053-1.612,0.16-2.384c0.105-0.771,0.219-1.551,0.34-2.338c0.242-1.665,1.256-2.604,3.043-2.815
		c1.361-0.182,2.664-0.189,3.904-0.023c1.242,0.167,2.482,0.583,3.725,1.249c0.182,0.121,0.371,0.227,0.566,0.318
		c0.197,0.091,0.416,0.197,0.66,0.318c1.482,0.697,2.725,1.574,3.723,2.634c1,1.06,1.832,2.271,2.498,3.633
		c0.605,1.12,0.924,2.195,0.953,3.224c-0.061,0.878-0.045,1.703,0.045,2.475c0.092,0.771-0.029,1.597-0.363,2.475
		c-0.695,2.059-1.832,3.799-3.404,5.222c-0.758,0.697-1.387,1.242-1.885,1.635c-0.5,0.394-1.203,0.802-2.111,1.226
		c-0.879,0.363-1.629,0.644-2.248,0.84c-0.621,0.197-1.553,0.386-2.793,0.568c-0.879,0.061-1.719,0.091-2.521,0.091
		C93.151,32.943,92.478,32.943,91.933,32.943z M110.052,49.291c0.695,2.241,1.027,4.42,0.998,6.539c0,1.423-0.076,3.111-0.227,5.063
		c-0.152,1.953-0.682,3.882-1.59,5.791c-0.816,1.543-1.611,2.83-2.385,3.859c-0.771,1.029-1.688,1.982-2.746,2.861
		c-0.303,0.242-0.924,0.719-1.861,1.43c-0.939,0.712-1.908,1.34-2.906,1.885c-0.607,0.303-1.439,0.644-2.498,1.021
		c-1.061,0.379-2.105,0.537-3.133,0.477c-1.727,0.061-2.725-0.271-2.998-0.998c0-0.121-0.016-0.22-0.045-0.295
		c-0.031-0.076-0.045-0.175-0.045-0.296c0-0.302,0-0.636,0-0.999s-0.031-0.802-0.092-1.316c0.242-1.847,0.334-3.762,0.273-5.744
		c-0.063-1.983-0.063-3.975,0-5.973c0-0.182-0.016-0.983-0.047-2.406c-0.029-1.423-0.074-3.065-0.135-4.927
		c-0.063-1.861-0.137-3.724-0.229-5.585c-0.09-1.862-0.166-3.322-0.227-4.382c-0.121-1.06-0.182-2.081-0.182-3.065
		s0.029-1.976,0.092-2.975c0-0.938,0.119-1.771,0.363-2.498c0.363-1.362,1.285-2.013,2.77-1.953c0.484,0,0.945,0.016,1.385,0.045
		c0.439,0.03,0.916,0.076,1.43,0.136c1.666,0.121,3.195,0.522,4.588,1.203c1.391,0.682,2.709,1.552,3.949,2.611
		c0.363,0.303,0.734,0.658,1.113,1.067c0.379,0.408,0.75,0.794,1.113,1.158c0.695,0.757,1.209,1.582,1.543,2.475
		s0.637,1.809,0.908,2.747c0.121,0.484,0.242,0.992,0.363,1.521S109.87,48.807,110.052,49.291z"/>
	<path fill="#A9DDD3" d="M128.442,73.676c0.061,1.605,0.016,2.611-0.137,3.02c-0.152,0.41-0.727,0.705-1.725,0.887
		c-1.303,0.242-2.355,0.348-3.156,0.317c-0.803-0.03-1.734-0.075-2.793-0.136c-0.545,0-0.977-0.016-1.295-0.046
		c-0.316-0.03-0.629-0.136-0.93-0.317c-0.607-0.424-0.908-1.045-0.908-1.862c-0.063-0.242-0.092-0.491-0.092-0.749s0-0.507,0-0.75
		c0.061-1.361,0.045-2.679-0.045-3.95c-0.092-1.271-0.076-2.558,0.045-3.86c0.121-2.18,0.166-4.321,0.137-6.425
		c-0.031-2.104-0.107-4.246-0.227-6.425c-0.063-1.423-0.063-2.815,0-4.178c0.061-1.362,0.15-2.754,0.271-4.178
		c0.061-1.241,0.121-2.467,0.182-3.678c0.061-1.21,0.061-2.437,0-3.678c-0.061-0.756-0.105-1.536-0.137-2.338
		c-0.029-0.802-0.045-1.688-0.045-2.657c-0.061-1.241-0.105-2.581-0.137-4.019c-0.029-1.438,0.016-2.898,0.137-4.382
		c0.061-0.938,0.045-1.869-0.045-2.793c-0.092-0.923-0.137-1.854-0.137-2.792c-0.061-1.362-0.105-2.725-0.137-4.087
		c-0.029-1.362,0.016-2.725,0.137-4.087c0.061-0.484,0.152-0.976,0.273-1.476c0.119-0.499,0.242-0.991,0.363-1.476
		c0.182-0.696,0.68-1.105,1.498-1.226c0.424-0.061,0.84-0.091,1.248-0.091c0.41,0,0.824,0,1.25,0c0.545,0,1.096,0.016,1.656,0.045
		c0.561,0.03,1.129,0.045,1.703,0.045c0.697,0.061,1.182,0.212,1.453,0.454c0.273,0.243,0.469,0.681,0.59,1.317
		c0.303,1.362,0.471,2.709,0.5,4.042c0.029,1.333,0.076,2.649,0.137,3.951c0.061,0.938,0.105,1.673,0.137,2.202
		c0.029,0.53-0.016,1.219-0.137,2.066c0,0.243,0,0.848,0,1.816c0,0.969,0.029,1.605,0.09,1.907c0.121,2.119,0.152,4.026,0.092,5.722
		c-0.061,1.696-0.121,3.572-0.182,5.631c-0.061,0.817-0.092,1.612-0.092,2.384c0,0.772-0.029,1.521-0.09,2.248
		c-0.121,1.665-0.152,3.323-0.092,4.973s0.031,3.322-0.09,5.018c0,0.878,0,1.665,0,2.361c0,0.697,0.061,1.574,0.182,2.634
		c0.061,0.757,0.074,1.461,0.045,2.111c-0.029,0.651-0.045,1.31-0.045,1.976L128.442,73.676z M148.286,10.965
		c2.119,2.482,2.982,5.374,2.588,8.673c-0.121,1.302-0.4,2.559-0.84,3.769c-0.439,1.211-0.961,2.407-1.566,3.587
		c-0.363,0.697-0.824,1.333-1.385,1.907c-0.561,0.575-1.129,1.151-1.703,1.726c-1.482,1.362-3.125,2.354-4.926,2.975
		c-1.803,0.621-3.688,0.961-5.654,1.021c-1,0.061-1.998-0.106-2.998-0.5c-1.119-0.424-1.68-1.165-1.68-2.225
		c0-0.696-0.016-1.332-0.045-1.907c-0.031-0.575-0.045-1.21-0.045-1.907c-0.063-0.878-0.107-1.703-0.137-2.475
		c-0.031-0.772,0.016-1.582,0.137-2.43c0.061-0.484,0.074-1.014,0.045-1.589c-0.031-0.575-0.076-1.135-0.137-1.68
		c0-1.241-0.016-2.498-0.045-3.769c-0.031-1.271-0.076-2.527-0.137-3.769c-0.061-0.605-0.061-1.203,0-1.794
		c0.061-0.59,0.152-1.203,0.273-1.839c0.119-0.696,0.309-1.15,0.566-1.362c0.258-0.211,0.719-0.378,1.385-0.5
		c0.879-0.121,1.734-0.242,2.566-0.363c0.832-0.121,1.688-0.182,2.566-0.182c1.24-0.121,2.422-0.075,3.541,0.136
		c1.119,0.212,2.195,0.636,3.225,1.271c0.877,0.424,1.68,0.893,2.406,1.408C147.015,9.664,147.681,10.269,148.286,10.965z
		 M148.831,71.043c0.182,0.696,0.303,1.34,0.363,1.93s0.152,1.324,0.273,2.202c0.119,0.757,0.09,1.233-0.092,1.431
		s-0.605,0.401-1.271,0.613c-0.697,0.242-1.445,0.379-2.248,0.408c-0.803,0.03-1.551,0.076-2.248,0.137
		c-0.605,0-1.248,0.016-1.93,0.045c-0.68,0.03-1.34-0.016-1.975-0.137c-0.879-0.182-1.438-0.432-1.68-0.748
		c-0.244-0.318-0.426-1.037-0.545-2.158c-0.063-0.695-0.121-1.361-0.182-1.998c-0.063-0.635-0.152-1.301-0.273-1.998
		c-0.303-1.785-0.613-3.579-0.93-5.381c-0.318-1.801-0.629-3.594-0.932-5.381c-0.182-1.181-0.371-2.331-0.568-3.451
		c-0.197-1.12-0.385-2.24-0.566-3.36c-0.121-0.817-0.289-1.597-0.5-2.338c-0.213-0.742-0.408-1.476-0.59-2.203
		c-0.426-1.786-0.766-3.595-1.021-5.426c-0.258-1.832-0.6-3.656-1.023-5.472c-0.121-0.484-0.029-0.931,0.273-1.339
		c0.303-0.409,0.771-0.643,1.408-0.704h2.951c0.484,0,0.932,0.016,1.34,0.045c0.408,0.03,0.855,0.045,1.34,0.045
		c0.482,0,0.982,0.091,1.498,0.272c0.695,0.182,1.195,0.711,1.498,1.589c0.545,2.361,1.053,4.753,1.521,7.175
		c0.469,2.422,0.916,4.875,1.34,7.356c0.121,0.878,0.295,1.764,0.521,2.657c0.229,0.893,0.461,1.764,0.705,2.611
		c0.482,2.361,1.043,4.654,1.68,6.879C147.604,66.57,148.226,68.803,148.831,71.043z"/>
	<path fill="#EE7971" d="M176.985,22.908c0.061,1.302,0.092,2.709,0.092,4.223c0,1.514-0.016,2.997-0.047,4.45
		c-0.029,1.453-0.061,2.74-0.09,3.86c-0.031,1.12-0.045,1.892-0.045,2.316c0,0.757,0.014,1.862,0.045,3.315
		c0.029,1.453,0.045,2.937,0.045,4.45c0,1.514,0,2.876,0,4.087c0,1.211-0.029,1.907-0.09,2.089c0,0.243-0.031,0.924-0.092,2.043
		c-0.061,1.12-0.105,2.332-0.137,3.633c-0.029,1.302-0.061,2.513-0.09,3.633c-0.031,1.12-0.045,1.771-0.045,1.952
		c-0.063,0.484-0.107,0.962-0.137,1.432c-0.031,0.469-0.076,0.93-0.137,1.385c0,0.242-0.061,0.484-0.182,0.727
		c-0.121,0.303-0.348,0.453-0.682,0.453c-0.182,0-0.506,0-0.975,0c-0.471,0-0.977-0.045-1.521-0.136s-1.113-0.182-1.703-0.272
		s-1.084-0.227-1.477-0.408c-0.242-0.121-0.734-0.326-1.475-0.613c-0.742-0.287-1.734-0.765-2.975-1.431
		c-1.363-0.817-2.43-1.657-3.201-2.52c-0.773-0.863-1.447-1.733-2.021-2.611c-0.879-1.06-1.529-1.99-1.953-2.793
		c-0.424-0.802-0.879-1.914-1.361-3.337c-0.182-0.545-0.342-1.317-0.477-2.316c-0.137-0.999-0.266-2.013-0.387-3.042
		c-0.121-1.029-0.227-1.975-0.318-2.838c-0.09-0.862-0.137-1.445-0.137-1.748c-0.121-1.181-0.105-2.331,0.047-3.451
		c0.15-1.12,0.348-2.271,0.59-3.451c0.121-0.545,0.264-1.112,0.432-1.703c0.166-0.59,0.34-1.188,0.521-1.793
		c0.242-0.756,0.598-1.597,1.068-2.52c0.469-0.923,1.006-1.854,1.611-2.793c0.484-0.696,0.9-1.256,1.248-1.68
		c0.348-0.424,0.697-0.825,1.045-1.204c0.348-0.378,0.703-0.719,1.066-1.021c0.363-0.302,0.803-0.681,1.318-1.135
		c1.059-0.696,2.27-1.43,3.633-2.203c1.361-0.771,2.725-1.278,4.086-1.521c1.242-0.061,2.277-0.121,3.111-0.182
		c0.832-0.061,1.219,0.061,1.158,0.363c0.182,0.121,0.316,0.401,0.408,0.84c0.09,0.439,0.15,0.908,0.182,1.407
		c0.029,0.5,0.045,0.954,0.045,1.362C176.985,22.613,176.985,22.847,176.985,22.908z M201.552,42.252
		c0.061,1.181,0.016,2.339-0.135,3.474c-0.152,1.136-0.363,2.264-0.637,3.383c-0.121,0.606-0.258,1.188-0.408,1.749
		c-0.152,0.56-0.318,1.158-0.5,1.793c-0.242,0.757-0.598,1.597-1.066,2.52c-0.471,0.924-0.977,1.855-1.521,2.793
		c-0.484,0.697-0.916,1.271-1.295,1.726s-0.727,0.848-1.043,1.181c-0.318,0.333-0.66,0.658-1.023,0.977
		c-0.363,0.317-0.832,0.688-1.406,1.112c-1.061,0.697-2.256,1.432-3.588,2.203s-2.68,1.279-4.041,1.521
		c-1.242,0.121-2.279,0.197-3.111,0.227c-0.832,0.03-1.248-0.075-1.248-0.318c-0.182-0.12-0.318-0.416-0.41-0.885
		c-0.09-0.469-0.15-0.932-0.182-1.385c-0.029-0.455-0.045-0.887-0.045-1.295s0-0.643,0-0.703c-0.061-1.302-0.09-2.709-0.09-4.224
		c0-1.514,0.014-3.004,0.045-4.473c0.029-1.468,0.061-2.754,0.09-3.859c0.031-1.105,0.047-1.885,0.047-2.339
		c0-0.756-0.016-1.877-0.047-3.36c-0.029-1.483-0.045-2.981-0.045-4.496c0-1.514,0.016-2.861,0.045-4.042
		c0.031-1.181,0.047-1.862,0.047-2.043c0-0.242,0.029-0.938,0.09-2.089c0.061-1.15,0.105-2.376,0.137-3.678
		c0.029-1.301,0.074-2.513,0.137-3.633c0.061-1.12,0.09-1.771,0.09-1.953c0.061-0.424,0.105-0.87,0.137-1.339
		c0.029-0.469,0.074-0.946,0.137-1.431c0-0.363,0.029-0.62,0.09-0.772c0.121-0.302,0.334-0.454,0.637-0.454
		c0.424-0.061,1.277-0.015,2.564,0.136c1.287,0.152,2.324,0.394,3.111,0.727c0.242,0.121,0.742,0.318,1.498,0.59
		s1.756,0.757,2.998,1.453c1.361,0.817,2.43,1.673,3.201,2.566s1.459,1.733,2.066,2.52c0.877,1.06,1.535,2.006,1.975,2.838
		s0.869,1.93,1.295,3.292c0.182,0.545,0.348,1.317,0.498,2.316c0.152,0.999,0.297,2.014,0.432,3.042
		c0.137,1.029,0.25,1.998,0.342,2.906C201.507,41.435,201.552,42.01,201.552,42.252z"/>
	<path fill="#F8916D" d="M260.722,7.65c0.061,0.303,0.105,0.606,0.137,0.908c0.029,0.303-0.016,0.621-0.137,0.954
		c-0.303,1.181-0.484,2.354-0.545,3.519c-0.061,1.166-0.197,2.369-0.408,3.61c-0.121,0.424-0.213,0.855-0.273,1.294
		c-0.061,0.439-0.15,0.916-0.271,1.431c-0.303,1.12-0.613,2.233-0.932,3.338s-0.629,2.248-0.932,3.428
		c-0.061,0.182-0.242,1.007-0.545,2.475s-0.674,3.254-1.111,5.358c-0.439,2.104-0.908,4.367-1.408,6.789
		c-0.5,2.422-0.961,4.7-1.385,6.834c-0.424,2.134-0.795,3.958-1.113,5.472c-0.316,1.514-0.506,2.437-0.566,2.77
		c-0.484,2.18-1.084,4.284-1.795,6.313c-0.711,2.027-1.232,4.132-1.566,6.312c-0.061,0.425-0.15,0.976-0.271,1.657
		s-0.258,1.37-0.41,2.066c-0.15,0.697-0.303,1.316-0.453,1.861c-0.152,0.545-0.227,0.924-0.227,1.136c0,0.182-0.1,0.438-0.295,0.772
		c-0.197,0.333-0.477,0.674-0.84,1.021s-0.842,0.643-1.432,0.885s-1.355,0.363-2.293,0.363h-0.635c-1.121,0-2.006-0.166-2.658-0.499
		c-0.65-0.333-1.135-0.719-1.453-1.157c-0.316-0.439-0.521-0.879-0.611-1.318c-0.092-0.438-0.137-0.748-0.137-0.93
		s-0.152-0.803-0.455-1.862s-0.643-2.226-1.021-3.497s-0.719-2.489-1.021-3.654c-0.303-1.166-0.484-1.977-0.545-2.43
		c-0.303-2.18-0.75-4.117-1.34-5.813c-0.59-1.695-1.143-3.633-1.656-5.813c-0.121-0.878-0.273-1.763-0.455-2.656
		s-0.334-1.778-0.453-2.657c-0.182-1.301-0.471-2.604-0.863-3.905c-0.182-0.696-0.363-1.332-0.545-1.907
		c-0.182-0.575-0.334-1.196-0.455-1.862c-0.242-1.423-0.521-2.868-0.84-4.337c-0.318-1.468-0.537-2.913-0.658-4.336
		c-0.061-0.605-0.152-1.188-0.271-1.749c-0.121-0.56-0.244-1.127-0.363-1.703c-0.303-1.181-0.613-2.323-0.932-3.428
		s-0.629-2.218-0.932-3.338c-0.121-0.484-0.219-0.946-0.295-1.385s-0.143-0.886-0.203-1.34c-0.182-1.241-0.318-2.444-0.41-3.61
		c-0.09-1.165-0.287-2.338-0.59-3.519c-0.121-0.302-0.152-0.613-0.09-0.931c0.061-0.317,0.09-0.628,0.09-0.931
		c0.061-0.545,0.393-0.833,1-0.863c0.877,0,1.732,0.016,2.564,0.045c0.832,0.03,1.688,0.045,2.566,0.045
		c0,0.061,0.385,0.106,1.158,0.136c0.771,0.03,1.414,0.076,1.93,0.136c1.119,0.061,1.861,0.651,2.225,1.771
		c0.121,0.424,0.227,0.84,0.318,1.249c0.09,0.408,0.197,0.84,0.318,1.294l1.951,8.628c0.242,1.181,0.477,2.346,0.705,3.497
		c0.227,1.151,0.432,2.346,0.613,3.587c0.182,1.726,0.393,3.459,0.635,5.199c0.242,1.741,0.561,3.474,0.953,5.2
		c0.303,1.423,0.592,2.831,0.863,4.223c0.273,1.393,0.574,2.815,0.908,4.269c0.121,0.545,0.242,1.098,0.363,1.657
		c0.121,0.561,0.242,1.113,0.363,1.658c0.121-0.545,0.242-1.097,0.363-1.658c0.121-0.56,0.242-1.112,0.363-1.657
		c0.303-1.423,0.598-2.838,0.885-4.246c0.289-1.407,0.584-2.822,0.887-4.246c0.363-1.726,0.674-3.458,0.93-5.2
		c0.258-1.74,0.508-3.474,0.75-5.199c0.121-1.241,0.295-2.437,0.521-3.587c0.229-1.15,0.492-2.316,0.795-3.497
		c0.303-1.423,0.605-2.861,0.908-4.314s0.621-2.891,0.953-4.314c0.121-0.424,0.242-0.84,0.363-1.249
		c0.121-0.408,0.242-0.84,0.363-1.294c0.303-1.06,1.016-1.65,2.135-1.771c0.484-0.061,1.121-0.106,1.908-0.136
		c0.787-0.03,1.18-0.075,1.18-0.136c0.879,0,1.732-0.015,2.566-0.045c0.832-0.03,1.672-0.045,2.52-0.045
		C260.253,6.817,260.601,7.105,260.722,7.65z"/>
	<path fill="#D3ADC5" d="M296.595,30.31c0.121,1.726,0.182,3.444,0.182,5.154c0,1.711-0.029,3.444-0.09,5.2
		c-0.061,2.846-0.16,5.676-0.295,8.492c-0.137,2.815-0.266,5.661-0.387,8.537c0,0.484-0.031,0.961-0.09,1.431
		c-0.063,0.469-0.092,0.946-0.092,1.43c-0.121,1.787-0.197,3.368-0.227,4.746c-0.031,1.377-0.107,2.959-0.227,4.744
		c0,0.062,0,0.243,0,0.545c0,0.303-0.031,0.645-0.092,1.021c-0.061,0.379-0.197,0.727-0.408,1.045c-0.213,0.318-0.545,0.477-1,0.477
		c-0.938,0.062-1.93,0.054-2.975-0.021c-1.043-0.076-2.02-0.25-2.928-0.523c-0.908-0.271-1.635-0.658-2.18-1.158
		c-0.545-0.498-0.787-1.142-0.727-1.93c0-0.424,0.014-0.84,0.045-1.248c0.029-0.408,0.076-0.87,0.137-1.385
		c-0.818,0-1.629-0.03-2.43-0.092c-0.803-0.061-1.492-0.12-2.066-0.182c-0.697,0-1.506-0.061-2.43-0.182
		c-0.924-0.12-1.801-0.256-2.633-0.408c-0.834-0.151-1.561-0.311-2.18-0.477c-0.621-0.166-0.963-0.25-1.021-0.25
		c-1.908-0.696-3.438-1.597-4.588-2.701c-1.15-1.105-2.133-2.309-2.951-3.611c-0.758-1.241-1.227-2.588-1.408-4.042
		s-0.135-3.072,0.137-4.859c0.182-1.423,0.568-2.649,1.158-3.678c0.59-1.029,1.34-2.013,2.248-2.952
		c0.484-0.484,1.227-1.052,2.225-1.703c1-0.65,1.756-1.097,2.271-1.339c1.422-0.696,2.77-1.135,4.041-1.317s2.891-0.393,4.859-0.636
		c1.604-0.121,2.891-0.219,3.859-0.295s1.982-0.038,3.043,0.113c0-0.242,0.014-0.477,0.045-0.704
		c0.029-0.227,0.045-0.461,0.045-0.704c0.121-1.362,0.076-2.944-0.137-4.746c-0.211-1.801-0.514-3.322-0.908-4.563
		c-0.182-0.484-0.332-0.946-0.453-1.385s-0.363-1.037-0.727-1.794c-0.484-0.756-0.947-1.332-1.385-1.726
		c-0.439-0.393-1.068-0.56-1.885-0.5c-0.545,0-1.037,0.174-1.477,0.522c-0.439,0.349-0.816,0.734-1.135,1.158
		c-0.318,0.424-0.568,0.855-0.75,1.294c-0.182,0.439-0.303,0.75-0.363,0.931c-0.303,0.757-0.545,1.627-0.727,2.611
		c-0.182,0.984-0.348,2.006-0.498,3.065c-0.063,0.424-0.152,0.825-0.273,1.203c-0.121,0.379-0.348,0.674-0.682,0.886
		c-0.332,0.212-0.855,0.371-1.566,0.477c-0.711,0.106-1.688,0.084-2.928-0.068c-1.061-0.061-1.855-0.302-2.385-0.727
		c-0.529-0.424-0.9-0.916-1.113-1.476c-0.211-0.56-0.303-1.135-0.271-1.726c0.029-0.59,0.045-1.127,0.045-1.612
		c0-0.302,0.016-0.568,0.045-0.794c0.031-0.228,0.076-0.492,0.137-0.795c0.242-2.18,0.613-3.951,1.113-5.313
		c0.498-1.362,0.961-2.422,1.385-3.179c0.424-0.756,0.809-1.332,1.158-1.726c0.348-0.393,0.672-0.742,0.977-1.044
		c0.998-0.938,1.959-1.748,2.883-2.43c0.924-0.681,2.006-1.173,3.246-1.476c1.605-0.302,3.186-0.378,4.746-0.227
		c1.559,0.152,3.049,0.666,4.473,1.544c0.303,0.182,0.629,0.363,0.977,0.545s0.674,0.394,0.977,0.636
		c0.998,0.545,1.809,1.242,2.43,2.089c0.619,0.848,1.172,1.801,1.656,2.861c0.758,1.726,1.311,3.504,1.658,5.336
		S296.353,28.402,296.595,30.31z"/>
	<g>
		<path fill="#5E5E5E" d="M305.047,74.293c-0.121-1.242,0.016-2.377,0.409-3.406s0.938-2.073,1.635-3.133
			c0.878-1.242,1.823-2.43,2.838-3.565c1.015-1.135,2.051-2.232,3.11-3.292c1.12-1.06,2.143-2.18,3.065-3.36
			s1.854-2.391,2.793-3.633c0.696-0.878,1.347-1.748,1.952-2.611c0.605-0.862,1.256-1.718,1.953-2.565
			c0.484-0.545,0.9-1.12,1.249-1.726c0.348-0.605,0.673-1.241,0.976-1.907c0.121-0.302,0.212-0.613,0.273-0.931
			c0.061-0.318,0.061-0.628,0-0.931c0-0.182-0.062-0.355-0.182-0.522c-0.121-0.167-0.273-0.22-0.455-0.159
			c-2.119,0.484-3.633,1.514-4.541,3.088c-0.878,1.544-1.771,3.058-2.679,4.541c-0.908,1.483-1.786,2.982-2.634,4.496
			c-0.121,0.243-0.25,0.454-0.386,0.636c-0.137,0.182-0.266,0.363-0.386,0.545c-0.697,0.757-1.348,1.491-1.953,2.203
			s-1.256,1.476-1.953,2.293c-0.938,0.697-1.664,1.173-2.18,1.431c-0.515,0.257-1.18,0.492-1.998,0.704
			c-0.756,0.182-1.566,0.129-2.429-0.159c-0.863-0.288-1.62-0.727-2.271-1.317c-0.651-0.59-1.143-1.316-1.477-2.18
			c-0.333-0.862-0.379-1.763-0.136-2.702c0.302-1.544,0.795-2.906,1.476-4.087c0.682-1.181,1.643-2.391,2.884-3.633
			c0.817-0.999,1.362-1.771,1.635-2.316s0.409-1.256,0.409-2.134c-0.121-0.605-0.334-0.969-0.637-1.09
			c-0.484-0.182-0.893-0.061-1.226,0.363c-0.182,0.182-0.438,0.507-0.772,0.976c-0.333,0.47-0.824,0.961-1.476,1.476
			c-0.651,0.515-1.476,1.007-2.475,1.476s-2.241,0.794-3.724,0.976c-1.061,0-1.869-0.25-2.43-0.75
			c-0.561-0.499-1.052-0.96-1.476-1.385c-0.484-0.484-0.81-1.241-0.977-2.271c-0.167-1.029-0.053-1.846,0.341-2.452
			c0.545-0.999,1.469-1.438,2.77-1.317c1,0,1.59,0.53,1.771,1.589c0.121,0.484,0.242,0.817,0.363,0.999
			c0.121,0.303,0.333,0.409,0.636,0.318c0.242-0.061,0.741-0.34,1.499-0.84c0.756-0.499,1.551-1.059,2.384-1.68
			c0.832-0.621,1.604-1.181,2.315-1.681c0.711-0.499,1.128-0.779,1.249-0.84c1.847-1.12,3.497-0.969,4.95,0.454
			c0.695,0.757,1.18,1.537,1.453,2.339c0.271,0.802,0.424,1.574,0.453,2.315c0.03,0.742,0.016,1.393-0.045,1.953
			s-0.091,0.901-0.091,1.021c-0.243,1.483-0.924,2.815-2.044,3.996c-0.545,0.545-1.066,1.12-1.566,1.726
			c-0.499,0.606-1.006,1.181-1.521,1.726c-0.756,0.938-1.119,2.028-1.09,3.27c0,0.303,0.092,0.545,0.273,0.727
			s0.424,0.152,0.727-0.091c0.242-0.182,0.506-0.348,0.794-0.5c0.288-0.151,0.522-0.363,0.704-0.636
			c0.878-0.938,1.718-1.915,2.521-2.929c0.802-1.014,1.536-2.081,2.202-3.201c0.484-0.938,0.961-1.869,1.431-2.793
			c0.469-0.923,0.96-1.823,1.476-2.702c0.938-1.665,2.119-2.989,3.542-3.973s3.026-1.764,4.813-2.339
			c0.121-0.061,0.446-0.106,0.977-0.136c0.529-0.03,1.119-0.045,1.771-0.045s1.271,0.076,1.862,0.227
			c0.59,0.152,1.006,0.379,1.248,0.681c0.818,1.06,1.332,2.15,1.545,3.27c0.211,1.12,0.074,2.361-0.409,3.724
			c-0.817,1.998-1.862,3.799-3.134,5.404c-1.271,1.605-2.527,3.24-3.769,4.904c-0.425,0.545-0.855,1.09-1.294,1.635
			c-0.439,0.545-0.871,1.12-1.295,1.726c-0.816,1.06-1.643,2.036-2.475,2.929c-0.832,0.894-1.748,1.718-2.747,2.475
			c-0.999,0.817-1.839,1.703-2.521,2.656c-0.681,0.954-1.324,1.96-1.93,3.021c-0.363,0.605-0.613,1.233-0.749,1.884
			c-0.137,0.651-0.235,1.325-0.296,2.021c0,1.484,0.621,1.893,1.862,1.227c1.483-0.756,2.694-1.816,3.633-3.179
			c1.181-1.726,2.376-3.413,3.587-5.063c1.211-1.649,2.346-3.367,3.406-5.154c0.696-1.119,1.551-2.104,2.565-2.951
			c1.015-0.847,2.081-1.604,3.202-2.271c1.998-1.241,4.011-1.09,6.039,0.454c0.817,0.545,1.619,1.378,2.406,2.498
			c0.697,0.938,1.029,1.892,1,2.861c-0.031,0.97-0.363,1.938-1,2.906c-2.664,3.027-4.268,5.661-4.813,7.901
			c-0.303,0.605-0.213,1.105,0.271,1.498c0.303,0.425,0.787,0.516,1.453,0.273c0.061,0,0.355-0.076,0.886-0.228
			s1.12-0.378,1.771-0.681c0.65-0.303,1.302-0.704,1.952-1.204c0.65-0.499,1.203-1.097,1.658-1.794
			c0.242-0.363,0.545-0.787,0.908-1.271c0.877-0.998,1.906-1.119,3.088-0.363c0.545,0.303,0.908,0.734,1.09,1.295
			s0.12,1.143-0.182,1.748c-0.545,1.242-1.379,2.392-2.498,3.451c-0.879,0.757-1.893,1.506-3.043,2.248s-2.709,1.355-4.677,1.839
			c-2.18,0.484-3.845,0.47-4.995-0.046c-1.15-0.514-1.998-1.771-2.543-3.769c-0.424-1.604-0.303-3.345,0.363-5.222
			c0.424-1.242,0.9-2.324,1.431-3.247c0.529-0.923,1.264-2.005,2.202-3.247c0.756-0.605,1.074-1.408,0.953-2.406
			c-0.061-0.424-0.249-0.734-0.567-0.932c-0.317-0.196-0.658-0.234-1.021-0.113c-0.484,0.182-0.931,0.462-1.34,0.84
			c-0.408,0.379-0.81,0.779-1.203,1.203c-0.696,0.879-1.347,1.734-1.952,2.566c-0.606,0.832-1.151,1.748-1.635,2.747
			c-0.121,0.303-0.463,0.855-1.022,1.657c-0.56,0.803-1.211,1.688-1.952,2.656c-0.742,0.97-1.566,1.969-2.475,2.998
			s-1.771,1.846-2.589,2.451c-1.544,1.061-2.823,1.787-3.837,2.18c-1.015,0.395-2.232,0.591-3.656,0.591
			c-0.605-0.061-1.135-0.272-1.589-0.636s-0.833-0.832-1.136-1.408c-0.605-0.998-0.908-2.072-0.908-3.224V74.293z"/>
	</g>
	<g>
		<path fill="#1C5266" d="M199.128,45.203c0-0.299,0.028-0.613,0.084-0.941c0.057-0.328,0.179-0.651,0.366-0.97
			c0.431-0.731,0.675-1.485,0.73-2.263c0.057-0.777,0.065-1.569,0.028-2.375c0-0.149-0.019-0.304-0.057-0.464
			c-0.037-0.159-0.056-0.333-0.056-0.52c0.037-0.956-0.07-1.888-0.323-2.797s-0.53-1.804-0.829-2.685
			c-0.301-0.88-0.666-1.724-1.097-2.53c-0.432-0.805-0.975-1.555-1.631-2.249c-0.3-0.375-0.623-0.735-0.97-1.083
			c-0.347-0.347-0.67-0.717-0.97-1.11c-0.338-0.375-0.731-0.651-1.181-0.83c-0.45-0.178-0.882-0.36-1.293-0.548
			c-0.188-0.075-0.371-0.141-0.549-0.197c-0.178-0.056-0.323-0.178-0.436-0.365c-0.112-0.262-0.216-0.52-0.31-0.773
			s-0.122-0.539-0.084-0.857c0.037-0.431,0.239-0.759,0.604-0.984c0.365-0.225,0.717-0.234,1.054-0.028
			c0.581,0.337,1.177,0.614,1.785,0.829c0.609,0.216,1.186,0.548,1.729,0.998c0.3,0.3,0.558,0.432,0.772,0.394
			c0.216-0.037,0.492-0.206,0.83-0.506c0.468-0.375,0.923-0.777,1.363-1.209c0.44-0.431,0.811-0.909,1.11-1.434
			c0.3-0.468,0.74-0.731,1.321-0.787s1.068,0.112,1.462,0.506c0.225,0.225,0.355,0.577,0.394,1.054
			c0.037,0.478-0.038,0.848-0.225,1.111c-0.301,0.431-0.778,0.815-1.434,1.152c-0.844,0.432-1.519,1.144-2.024,2.137
			c-0.112,0.3-0.112,0.572,0,0.815c0.112,0.188,0.234,0.398,0.365,0.633s0.263,0.445,0.394,0.632c0.188,0.3,0.384,0.488,0.591,0.563
			c0.206,0.075,0.486,0.019,0.843-0.169c0.544-0.262,1.055-0.529,1.532-0.801c0.479-0.271,0.979-0.557,1.504-0.857
			c0.15-0.074,0.286-0.164,0.408-0.267c0.121-0.103,0.257-0.192,0.407-0.267c0.844-0.375,1.499-0.253,1.968,0.365
			c0.581,0.881,0.544,1.649-0.112,2.305c-0.15,0.15-0.323,0.272-0.52,0.366c-0.197,0.094-0.39,0.178-0.577,0.253
			c-0.543,0.263-1.072,0.511-1.588,0.745s-1.045,0.501-1.589,0.801c-0.431,0.188-0.684,0.389-0.759,0.604
			c-0.075,0.216-0.075,0.558,0,1.026c0.037,0.075,0.057,0.168,0.057,0.281c0.187,0.656,0.389,1.059,0.604,1.209
			c0.215,0.15,0.65,0.15,1.307,0c0.544-0.112,1.083-0.215,1.617-0.309s1.072-0.281,1.616-0.563c0.655-0.299,1.251-0.295,1.785,0.014
			s0.857,0.783,0.97,1.42c0.112,0.581-0.104,1.05-0.646,1.405c-0.375,0.188-0.797,0.319-1.266,0.394
			c-0.431,0.038-0.843,0.075-1.236,0.113s-0.807,0.094-1.237,0.168c-0.188,0.038-0.356,0.056-0.506,0.056
			c-0.15,0-0.31,0.038-0.478,0.113c-0.807,0.337-1.125,0.956-0.956,1.855c0.074,0.375,0.131,0.646,0.169,0.815
			c0.074,0.375,0.28,0.619,0.618,0.731c0.543,0.15,1.082,0.267,1.616,0.352s1.073,0.042,1.616-0.126
			c0.656-0.187,1.224-0.136,1.701,0.154c0.478,0.291,0.811,0.764,0.998,1.42c0.074,0.3,0.047,0.614-0.084,0.942
			c-0.132,0.328-0.348,0.567-0.646,0.717c-0.338,0.15-0.694,0.263-1.068,0.337c-0.376,0.075-0.77,0.019-1.181-0.169
			c-0.469-0.187-0.942-0.328-1.42-0.421c-0.479-0.094-0.989-0.141-1.532-0.141c-0.432,0-0.731,0.066-0.899,0.197
			c-0.169,0.131-0.328,0.394-0.479,0.787c-0.075,0.188-0.131,0.384-0.168,0.59c-0.038,0.207-0.075,0.431-0.113,0.675
			c-0.112,0.769-0.347,1.49-0.702,2.165c-0.188,0.431-0.474,0.722-0.857,0.872c-0.385,0.15-0.783,0.15-1.195,0
			c-0.188-0.038-0.342-0.112-0.464-0.225c-0.122-0.112-0.221-0.243-0.295-0.394c-0.112-0.299-0.188-0.609-0.225-0.928
			C199.146,45.813,199.128,45.503,199.128,45.203z"/>
	</g>
	<path fill="#A9DDD3" d="M25.14,51.686c-1.281,0.102-2.166-0.421-2.656-1.567c-0.1-0.303-0.125-0.602-0.074-0.897
		c0.049-0.294,0.135-0.577,0.252-0.847c0.303-0.623,0.732-1.163,1.289-1.618c0.338-0.269,0.721-0.412,1.15-0.43
		c0.43-0.017,0.838,0.11,1.227,0.38c0.102,0.067,0.201,0.177,0.303,0.328c0.068,0.102,0.156,0.278,0.266,0.531
		s0.207,0.526,0.291,0.821s0.152,0.581,0.201,0.859c0.051,0.278,0.076,0.485,0.076,0.619c0,0.894-0.43,1.45-1.289,1.669
		C25.788,51.636,25.442,51.686,25.14,51.686z M24.153,63.063c0.791-0.337,1.482-0.308,2.072,0.088
		c0.59,0.396,0.902,1.058,0.936,1.984c0,0.389-0.072,0.78-0.215,1.176c-0.143,0.396-0.451,0.712-0.922,0.948
		c-0.455,0.202-0.891,0.261-1.303,0.177c-0.414-0.084-0.83-0.262-1.252-0.531c-0.826-0.589-1.061-1.364-0.707-2.325
		C23.032,63.871,23.495,63.365,24.153,63.063z M26.731,56.489c0.135,0.27,0.266,0.556,0.393,0.859c0.125,0.304,0.24,0.606,0.34,0.91
		c0.236,0.624,0.068,1.138-0.506,1.542c-0.201,0.169-0.416,0.325-0.645,0.468c-0.227,0.144-0.518,0.215-0.871,0.215
		c-0.793,0-1.445-0.257-1.959-0.771c-0.516-0.515-0.789-1.192-0.822-2.035c-0.033-0.489,0.102-0.927,0.404-1.314
		s0.717-0.658,1.238-0.81C25.399,55.25,26.208,55.563,26.731,56.489z M25.821,38.262c0.488,0.034,0.936,0.215,1.34,0.544
		c0.404,0.328,0.658,0.737,0.758,1.226c0.068,0.169,0.105,0.358,0.115,0.569c0.008,0.211,0.029,0.417,0.063,0.619
		c0.033,0.489-0.113,0.965-0.443,1.429c-0.328,0.464-0.754,0.779-1.275,0.947c-0.422,0.169-0.869,0.22-1.34,0.152
		c-0.961-0.135-1.635-0.59-2.023-1.365c-0.387-0.775-0.336-1.576,0.152-2.401c0.303-0.522,0.656-0.948,1.063-1.277
		C24.634,38.376,25.163,38.229,25.821,38.262z M28.552,31.739c0.336,0.928,0.307,1.652-0.088,2.175
		c-0.396,0.522-1.109,0.885-2.137,1.087c-0.102,0.034-0.236,0.051-0.404,0.051c-0.725,0-1.299-0.231-1.719-0.695
		c-0.422-0.464-0.557-1.041-0.406-1.732c0.102-0.488,0.254-0.931,0.455-1.327c0.203-0.396,0.516-0.729,0.936-0.998
		c0.59-0.388,1.186-0.493,1.783-0.316s1.057,0.578,1.377,1.201c0.035,0.067,0.059,0.151,0.076,0.253
		C28.442,31.537,28.483,31.639,28.552,31.739z"/>
	<path fill="#29A18C" d="M16.694,61.874c0.59,0,0.994,0.097,1.215,0.291c0.219,0.193,0.404,0.552,0.555,1.074
		c0.305,1.112-0.025,1.972-0.984,2.578c-0.658,0.489-1.332,0.679-2.023,0.569s-1.297-0.477-1.82-1.1
		c-0.27-0.455-0.32-0.885-0.15-1.29c0.234-0.556,0.533-1.023,0.896-1.402c0.361-0.38,0.889-0.586,1.58-0.62
		C16.315,61.908,16.56,61.874,16.694,61.874z"/>
	<path fill="#29A18C" d="M16.392,46.352c0.926-0.033,1.596,0.224,2.01,0.771c0.412,0.548,0.67,1.167,0.771,1.857
		c0.066,0.455-0.105,0.89-0.52,1.303c-0.412,0.413-0.855,0.653-1.326,0.72c-1.063,0.102-1.998-0.193-2.807-0.885
		c-0.488-0.421-0.742-0.897-0.758-1.428c-0.018-0.531,0.219-1.032,0.707-1.505C15.026,46.63,15.667,46.352,16.392,46.352z"/>
	<path fill="#29A18C" d="M17.479,54.998c0.303,0.101,0.568,0.29,0.795,0.568c0.229,0.278,0.4,0.581,0.52,0.91
		c0.117,0.329,0.186,0.657,0.201,0.986c0.018,0.328-0.025,0.61-0.127,0.847c-0.135,0.303-0.441,0.611-0.922,0.923
		s-0.914,0.451-1.303,0.417c-0.201,0-0.408-0.034-0.619-0.102c-0.211-0.066-0.416-0.135-0.619-0.202
		c-0.926-0.488-1.428-0.998-1.504-1.529s0.148-1.192,0.67-1.984c0.387-0.557,0.838-0.894,1.354-1.012
		C16.438,54.703,16.956,54.762,17.479,54.998z"/>
	<path fill="#29A18C" d="M19.349,39.349c0.068,0.136,0.109,0.258,0.127,0.367s0.059,0.231,0.127,0.366
		c0.27,0.59,0.311,1.092,0.127,1.504c-0.186,0.414-0.541,0.797-1.063,1.15c-0.523,0.304-1.18,0.455-1.973,0.455
		c-0.066-0.033-0.205-0.059-0.416-0.075s-0.418-0.06-0.619-0.127c-0.27-0.067-0.51-0.231-0.721-0.493
		c-0.211-0.261-0.359-0.547-0.443-0.859c-0.084-0.312-0.117-0.632-0.102-0.961c0.018-0.328,0.127-0.594,0.33-0.796
		c0.42-0.522,0.881-0.931,1.377-1.226c0.498-0.295,1.092-0.409,1.783-0.342C18.624,38.414,19.112,38.76,19.349,39.349z"/>
	<path fill="#29A18C" d="M16.847,35.531c-0.488,0-0.91-0.113-1.264-0.341s-0.625-0.577-0.809-1.049
		c-0.068-0.202-0.119-0.346-0.152-0.43c-0.068-0.59,0.113-1.21,0.543-1.858s0.906-1.065,1.43-1.252
		c0.066-0.033,0.143-0.05,0.227-0.05s0.16-0.017,0.229-0.051c0.066,0.034,0.154,0.051,0.264,0.051s0.215,0.033,0.316,0.101
		c0.488,0.236,0.869,0.557,1.139,0.961s0.48,0.843,0.631,1.314c0.068,0.27,0.047,0.519-0.063,0.746s-0.232,0.451-0.367,0.67
		C18.448,35.17,17.739,35.565,16.847,35.531z"/>
	<path fill="#A9DDD3" d="M8.884,61.975c0.387,0.304,0.75,0.7,1.086,1.188c0.27,0.557,0.32,1.07,0.152,1.542
		c-0.168,0.473-0.549,0.793-1.137,0.961c-0.203,0.067-0.402,0.118-0.596,0.151c-0.193,0.034-0.391,0.067-0.594,0.102
		c-0.758,0.135-1.344,0.021-1.756-0.342c-0.414-0.362-0.604-0.938-0.57-1.731v-0.253c0.035-0.388,0.119-0.737,0.254-1.049
		s0.379-0.552,0.732-0.721c0.389-0.168,0.793-0.253,1.213-0.253C8.091,61.57,8.495,61.706,8.884,61.975z"/>
	<path fill="#A9DDD3" d="M8.833,53.708c0.521,0.136,0.936,0.393,1.238,0.771s0.488,0.83,0.557,1.353
		c0.066,0.758-0.203,1.307-0.809,1.644c-1.314,0.758-2.563,0.674-3.742-0.253c-0.27-0.202-0.422-0.434-0.455-0.695
		s-0.018-0.526,0.051-0.797c0-1.247,0.607-1.954,1.82-2.123c0.236,0,0.467,0,0.695,0C8.415,53.607,8.63,53.642,8.833,53.708z"/>
	<path fill="#A9DDD3" d="M8.833,38.06c0.859,0.034,1.445,0.295,1.756,0.784c0.313,0.488,0.484,1.02,0.52,1.593
		c0,0.488-0.16,0.834-0.48,1.036c-0.859,0.657-1.643,0.994-2.352,1.011c-0.707,0.018-1.441-0.228-2.199-0.732
		c-0.389-0.236-0.523-0.531-0.404-0.885c0.236-0.894,0.598-1.584,1.088-2.073C7.249,38.305,7.938,38.06,8.833,38.06z"/>
	<path fill="#A9DDD3" d="M10.122,30.703c0.623,0.489,1.02,1.146,1.188,1.972c0.102,0.455-0.004,0.923-0.314,1.403
		c-0.313,0.48-0.705,0.805-1.176,0.974c-0.17,0.067-0.342,0.113-0.52,0.139c-0.176,0.025-0.35,0.055-0.518,0.089
		c-0.168,0.033-0.334,0.059-0.492,0.075c-0.162,0.018-0.291,0.025-0.393,0.025c-0.59,0-1.023-0.08-1.303-0.24
		c-0.277-0.16-0.5-0.476-0.67-0.948c-0.27-0.758-0.346-1.381-0.227-1.87c0.117-0.489,0.572-0.952,1.365-1.391
		c0.42-0.236,0.816-0.43,1.188-0.581C8.909,30.13,9.532,30.248,10.122,30.703z"/>
	<path fill="#A9DDD3" d="M8.579,45.063c0.59-0.067,0.979-0.025,1.164,0.126c0.186,0.152,0.379,0.38,0.582,0.683
		c0.994,1.585,0.631,2.781-1.088,3.59c-0.488,0.202-0.957,0.271-1.402,0.202c-0.447-0.066-0.873-0.219-1.277-0.455
		c-0.168-0.066-0.299-0.164-0.393-0.29c-0.092-0.127-0.172-0.257-0.24-0.393c-0.303-0.69-0.32-1.364-0.051-2.022
		c0.27-0.657,0.785-1.104,1.543-1.34C7.854,45.063,8.243,45.029,8.579,45.063z"/>
</g>
</svg>
