<?xml version='1.0' encoding='iso-8859-1'?>
<svg version="1.1" xmlns="http://www.w3.org/2000/svg" viewBox="0 0 298.01 298.01" xmlns:xlink="http://www.w3.org/1999/xlink" enable-background="new 0 0 298.01 298.01">
  <g>
    <g>
      <path d="m99.674,248.01h-56.344c-14.25,0-26.656,16.589-26.656,30.844v19.156h264v-19.156c0-14.255-11.654-30.844-25.902-30.844h-57.098v-20.969c4-2.252 8.215-4.779 11.96-7.554l34.909,11.359 2.591-30.039 26.816-13.817-9.153-28.72 19.433-23.044-19.425-23.047 9.164-28.719-26.793-13.816-2.549-30.039-30.037-2.547-13.818-26.795-28.719,9.165-23.046-19.428-23.046,19.428-28.717-9.164-13.819,26.795-30.037,2.547-2.548,30.038-26.796,13.817 9.164,28.717-19.428,23.041 19.428,23.038-9.164,28.705 26.795,13.788 2.549,29.982 34.422-11.354c3.815,2.838 7.864,5.418 11.864,7.711 0,0 0,20.921 0,20.921zm-36.976-106h21.611c3.444,12.77 15.121,22.195 28.964,22.195s25.519-9.426 28.964-22.195h14.072c3.444,12.77 15.121,22.195 28.964,22.195s25.52-9.426 28.964-22.195h20.99c-2.52,45.398-40.247,81.562-86.266,81.562-46.017-0.001-83.744-36.164-86.263-81.562zm151.428-16c-3.575-12.569-15.152-21.805-28.853-21.805s-25.277,9.235-28.852,21.805h-14.295c-3.575-12.569-15.152-21.805-28.853-21.805s-25.277,9.235-28.853,21.805h-21.14c1.255-9.69 4.124-18.877 8.323-27.291 1.582,1.843 3.82,2.791 6.074,2.791 1.834,0 3.678-0.627 5.184-1.909 19.486-16.598 43.857-3.68 44.953-3.083 3.86,2.127 8.716,0.729 10.854-3.126 2.144-3.864 0.75-8.733-3.113-10.877-1.218-0.676-26.227-14.215-51.039-2.827 15.834-17.734 38.856-28.92 64.445-28.92 25.817,0 49.022,11.386 64.869,29.395-25.138-12.228-50.805,1.667-52.039,2.353-3.853,2.138-5.237,6.98-3.114,10.842 2.123,3.861 6.982,5.271 10.851,3.163 1.028-0.562 25.441-13.542 44.958,3.081 1.507,1.282 3.35,1.909 5.184,1.909 2.263,0 4.513-0.955 6.095-2.813 0.119-0.14 0.224-0.286 0.331-0.432 4.323,8.537 7.272,17.881 8.55,27.744 0,1.42109e-14-20.52,1.42109e-14-20.52,1.42109e-14zm-14.853,8.195c0,7.732-6.269,14-14,14-7.732,0-14-6.268-14-14s6.268-14 14-14c7.732-1.42109e-14 14,6.268 14,14zm-72,0c0,7.732-6.269,14-14,14-7.732,0-14-6.268-14-14s6.268-14 14-14 14,6.268 14,14zm21.356,105.366c11.558,0 23.045-1.927 33.045-5.473v30.911h-66v-30.88c11,3.527 21.43,5.442 32.955,5.442z"/>
      <path d="m116.007,198.01h22c4.468,0 8.436-2.1 11-5.357 2.563,3.258 6.532,5.357 11,5.357h22c7.732,0 14-6.268 14-14s-6.268-14-14-14h-22c-4.468,0-8.437,2.1-11,5.357-2.564-3.258-6.532-5.357-11-5.357h-22c-7.732,0-14,6.268-14,14 0,7.732 6.267,14 14,14z"/>
    </g>
  </g>
</svg>
